<svg xmlns="http://www.w3.org/2000/svg" viewBox="0 0 720 280" role="img" aria-labelledby="title desc">
  <title id="title">LabFoundry appliance graphic</title>
  <desc id="desc">Stylized lab network appliance with service cards, routed links, and a highlighted foundry core.</desc>
  <defs>
    <linearGradient id="backplane" x1="74" y1="28" x2="650" y2="252" gradientUnits="userSpaceOnUse">
      <stop offset="0" stop-color="#eff6ff" />
      <stop offset="0.54" stop-color="#e0f2fe" />
      <stop offset="1" stop-color="#ccfbf1" />
    </linearGradient>
    <linearGradient id="core" x1="352" y1="78" x2="380" y2="178" gradientUnits="userSpaceOnUse">
      <stop offset="0" stop-color="#f59e0b" />
      <stop offset="1" stop-color="#0f766e" />
    </linearGradient>
    <filter id="shadow" x="-10%" y="-20%" width="120%" height="145%">
      <feDropShadow dx="0" dy="16" stdDeviation="18" flood-color="#1e3a8a" flood-opacity="0.16" />
    </filter>
  </defs>
  <rect width="720" height="280" rx="28" fill="#f8fafc" />
  <path d="M75 210C115 134 177 76 269 72c73-3 99 33 155 23 64-11 92-59 159-42 49 13 79 55 95 93" fill="none" stroke="#dbeafe" stroke-width="24" stroke-linecap="round" />
  <g filter="url(#shadow)">
    <rect x="92" y="54" width="536" height="172" rx="24" fill="url(#backplane)" stroke="#bfdbfe" />
    <rect x="128" y="91" width="136" height="98" rx="14" fill="#fff" stroke="#cbd5e1" />
    <rect x="292" y="79" width="136" height="122" rx="16" fill="#fff" stroke="#cbd5e1" />
    <rect x="456" y="91" width="136" height="98" rx="14" fill="#fff" stroke="#cbd5e1" />
    <path d="M264 140h28M428 140h28M360 201v26M360 53v26" stroke="#2563eb" stroke-width="5" stroke-linecap="round" />
    <path d="M172 124h48M172 141h48M172 158h48M500 124h48M500 141h48M500 158h48" stroke="#1d4ed8" stroke-width="5" stroke-linecap="round" opacity="0.72" />
    <path d="M360 95c20 19 34 40 34 66a34 34 0 1 1-68 0c0-26 14-47 34-66Z" fill="url(#core)" stroke="#fff" stroke-width="6" />
    <path d="M342 139h36M342 159h36" stroke="#fff" stroke-width="5" stroke-linecap="round" opacity="0.82" />
    <circle cx="128" cy="140" r="10" fill="#fff" stroke="#2563eb" stroke-width="5" />
    <circle cx="264" cy="140" r="10" fill="#fff" stroke="#2563eb" stroke-width="5" />
    <circle cx="456" cy="140" r="10" fill="#fff" stroke="#2563eb" stroke-width="5" />
    <circle cx="592" cy="140" r="10" fill="#fff" stroke="#2563eb" stroke-width="5" />
    <circle cx="360" cy="53" r="10" fill="#fff" stroke="#0f766e" stroke-width="5" />
    <circle cx="360" cy="227" r="10" fill="#fff" stroke="#0f766e" stroke-width="5" />
  </g>
  <path d="M118 237h484" stroke="#e2e8f0" stroke-width="4" stroke-linecap="round" />
</svg>
