<svg xmlns="http://www.w3.org/2000/svg" viewBox="0 0 48 48" role="img" aria-labelledby="title desc">
  <title id="title">LabFoundry mark</title>
  <desc id="desc">Abstract network appliance mark with connected service nodes and a warm foundry core.</desc>
  <defs>
    <linearGradient id="field" x1="8" y1="6" x2="42" y2="44" gradientUnits="userSpaceOnUse">
      <stop offset="0" stop-color="#dbeafe" />
      <stop offset="0.58" stop-color="#bfdbfe" />
      <stop offset="1" stop-color="#ccfbf1" />
    </linearGradient>
    <linearGradient id="core" x1="22" y1="15" x2="30" y2="34" gradientUnits="userSpaceOnUse">
      <stop offset="0" stop-color="#f59e0b" />
      <stop offset="1" stop-color="#0f766e" />
    </linearGradient>
  </defs>
  <rect x="3" y="3" width="42" height="42" rx="10" fill="url(#field)" stroke="#bfdbfe" />
  <path d="M15 30h18M15 24h18M15 18h18" fill="none" stroke="#1d4ed8" stroke-width="2.2" stroke-linecap="round" opacity="0.72" />
  <path d="M24 13v22M16 18c0-4 16-4 16 0M16 30c0 4 16 4 16 0" fill="none" stroke="#1d4ed8" stroke-width="1.8" stroke-linecap="round" stroke-linejoin="round" opacity="0.48" />
  <circle cx="15" cy="18" r="3" fill="#fff" stroke="#2563eb" stroke-width="1.7" />
  <circle cx="33" cy="18" r="3" fill="#fff" stroke="#2563eb" stroke-width="1.7" />
  <circle cx="15" cy="30" r="3" fill="#fff" stroke="#2563eb" stroke-width="1.7" />
  <circle cx="33" cy="30" r="3" fill="#fff" stroke="#2563eb" stroke-width="1.7" />
  <path d="M24 15c3 3 5 6 5 10a5 5 0 0 1-10 0c0-4 2-7 5-10Z" fill="url(#core)" stroke="#fff" stroke-width="1.5" />
</svg>
